<svg width="39" height="32" viewBox="0 0 39 32" fill="none" xmlns="http://www.w3.org/2000/svg">
<path fill-rule="evenodd" clip-rule="evenodd" d="M38.4045 27.205V30.3867C38.4045 30.8349 38.2551 31.2083 37.9564 31.5071C37.6576 31.8058 37.2692 31.9701 36.7912 32H1.61326C1.16513 32 0.791692 31.8357 0.49294 31.5071C0.194187 31.1784 0.0298753 30.805 0 30.3867V27.205C0 26.7569 0.164312 26.3835 0.49294 26.0847C0.821568 25.786 1.195 25.6217 1.61326 25.5918H36.7912C37.2394 25.5918 37.6277 25.7561 37.9564 26.0847C38.285 26.4134 38.4344 26.7868 38.4045 27.205ZM38.4045 14.3886V17.6151C38.4045 18.0334 38.2551 18.4068 37.9564 18.7354C37.6576 19.0641 37.2692 19.2134 36.7912 19.1836H1.61326C1.16513 19.1836 0.791692 19.0342 0.49294 18.7354C0.194187 18.4367 0.0298753 18.0633 0 17.6151V14.3886C0 13.9704 0.164312 13.5969 0.49294 13.2683C0.821568 12.9397 1.195 12.7903 1.61326 12.8202H36.7912C37.2394 12.8202 37.6277 12.9695 37.9564 13.2683C38.285 13.567 38.4344 13.9405 38.4045 14.3886ZM38.4045 1.61699V4.79869C38.4045 5.21695 38.2551 5.59038 37.9564 5.91901C37.6576 6.24764 37.2692 6.41195 36.7912 6.41195H1.61326C1.16513 6.41195 0.791692 6.24764 0.49294 5.91901C0.194187 5.59038 0.0298753 5.21695 0 4.79869V1.61699C0 1.16886 0.164312 0.78049 0.49294 0.451861C0.821568 0.123233 1.195 -0.0261408 1.61326 0.00373445H36.7912C37.2394 0.00373445 37.6277 0.153109 37.9564 0.451861C38.285 0.750614 38.4344 1.13899 38.4045 1.61699Z" fill="white"/>
</svg>
