<svg width="32" height="32" viewBox="0 0 32 32" fill="none" xmlns="http://www.w3.org/2000/svg">
<path fill-rule="evenodd" clip-rule="evenodd" d="M32 25.7738C32 26.4817 31.7587 27.093 31.276 27.6078L27.6078 31.276C27.093 31.7587 26.4817 32 25.7738 32C25.0659 32 24.4545 31.7587 23.9397 31.276L16.0241 23.3122L8.1086 31.276C7.59376 31.7587 6.98241 32 6.27451 32C5.56661 32 4.95526 31.7587 4.44042 31.276L0.772247 27.6078C0.257413 27.093 0 26.4817 0 25.7738C0 25.0659 0.257413 24.4545 0.772247 23.9397L8.68778 16.0241L0.772247 8.1086C0.257413 7.59376 0 6.98241 0 6.27451C0 5.56661 0.257413 4.95526 0.772247 4.44042L4.44042 0.772247C4.95526 0.257413 5.56661 0 6.27451 0C6.98241 0 7.59376 0.257413 8.1086 0.772247L16.0241 8.68778L23.9397 0.772247C24.4545 0.257413 25.0659 0 25.7738 0C26.4817 0 27.093 0.257413 27.6078 0.772247L31.276 4.44042C31.7587 4.92308 32 5.53444 32 6.27451C32 7.01458 31.7587 7.62594 31.276 8.1086L23.3605 16.0241L31.276 23.9397C31.7587 24.4223 32 25.0337 32 25.7738Z" fill="white"/>
</svg>
